<svg width="486" height="196" viewBox="0 0 486 196" fill="none" xmlns="http://www.w3.org/2000/svg">
<path d="M249.758 103.836L231.182 74.424H245.544L257.498 94.548H258.186L270.054 74.424H284.502L265.84 103.836L286.05 136H271.602L258.186 113.812H257.498L244.082 136H229.634L249.758 103.836ZM296.333 92.14H306.911V97.472H307.599C308.803 95.58 310.552 94.0033 312.845 92.742C315.138 91.4233 317.776 90.764 320.757 90.764C324.713 90.764 328.296 91.7673 331.507 93.774C334.775 95.7233 337.326 98.4753 339.161 102.03C340.996 105.585 341.913 109.598 341.913 114.07C341.913 118.599 340.996 122.641 339.161 126.196C337.326 129.693 334.775 132.445 331.507 134.452C328.296 136.401 324.713 137.376 320.757 137.376C317.776 137.376 315.11 136.745 312.759 135.484C310.466 134.223 308.746 132.646 307.599 130.754H306.911L307.599 136.946V154.576H296.333V92.14ZM318.779 126.97C320.9 126.97 322.878 126.425 324.713 125.336C326.548 124.247 328.01 122.727 329.099 120.778C330.188 118.829 330.733 116.593 330.733 114.07C330.733 111.547 330.188 109.311 329.099 107.362C328.01 105.413 326.548 103.922 324.713 102.89C322.878 101.801 320.9 101.256 318.779 101.256C316.715 101.256 314.766 101.801 312.931 102.89C311.096 103.922 309.634 105.413 308.545 107.362C307.456 109.311 306.911 111.547 306.911 114.07C306.911 116.593 307.456 118.829 308.545 120.778C309.634 122.727 311.096 124.247 312.931 125.336C314.766 126.425 316.715 126.97 318.779 126.97ZM375.879 137.376C371.35 137.376 367.308 136.373 363.753 134.366C360.198 132.302 357.418 129.521 355.411 126.024C353.462 122.469 352.487 118.485 352.487 114.07C352.487 109.713 353.462 105.757 355.411 102.202C357.418 98.6473 360.198 95.8667 363.753 93.86C367.308 91.796 371.35 90.764 375.879 90.764C380.351 90.764 384.364 91.796 387.919 93.86C391.474 95.8667 394.226 98.6473 396.175 102.202C398.182 105.757 399.185 109.713 399.185 114.07C399.185 118.485 398.182 122.469 396.175 126.024C394.226 129.521 391.474 132.302 387.919 134.366C384.364 136.373 380.351 137.376 375.879 137.376ZM375.879 126.97C378.058 126.97 380.064 126.454 381.899 125.422C383.734 124.39 385.196 122.899 386.285 120.95C387.374 119.001 387.919 116.707 387.919 114.07C387.919 111.49 387.374 109.225 386.285 107.276C385.196 105.327 383.734 103.836 381.899 102.804C380.064 101.772 378.058 101.256 375.879 101.256C373.7 101.256 371.694 101.772 369.859 102.804C368.024 103.836 366.534 105.327 365.387 107.276C364.298 109.225 363.753 111.49 363.753 114.07C363.753 116.65 364.298 118.943 365.387 120.95C366.534 122.899 368.024 124.39 369.859 125.422C371.694 126.454 373.7 126.97 375.879 126.97ZM433.089 137.376C428.56 137.376 424.518 136.373 420.963 134.366C417.408 132.302 414.628 129.521 412.621 126.024C410.672 122.469 409.697 118.485 409.697 114.07C409.697 109.713 410.672 105.757 412.621 102.202C414.628 98.6473 417.408 95.8667 420.963 93.86C424.518 91.796 428.56 90.764 433.089 90.764C437.561 90.764 441.574 91.796 445.129 93.86C448.684 95.8667 451.436 98.6473 453.385 102.202C455.392 105.757 456.395 109.713 456.395 114.07C456.395 118.485 455.392 122.469 453.385 126.024C451.436 129.521 448.684 132.302 445.129 134.366C441.574 136.373 437.561 137.376 433.089 137.376ZM433.089 126.97C435.268 126.97 437.275 126.454 439.109 125.422C440.944 124.39 442.406 122.899 443.495 120.95C444.585 119.001 445.129 116.707 445.129 114.07C445.129 111.49 444.585 109.225 443.495 107.276C442.406 105.327 440.944 103.836 439.109 102.804C437.275 101.772 435.268 101.256 433.089 101.256C430.911 101.256 428.904 101.772 427.069 102.804C425.235 103.836 423.744 105.327 422.597 107.276C421.508 109.225 420.963 111.49 420.963 114.07C420.963 116.65 421.508 118.943 422.597 120.95C423.744 122.899 425.235 124.39 427.069 125.422C428.904 126.454 430.911 126.97 433.089 126.97ZM468.895 74.424H480.161V136H468.895V74.424Z" fill="black"/>
<rect x="97.9724" y="54.0933" width="62.1327" height="62.1327" transform="rotate(45 97.9724 54.0933)" fill="#EFB82D"/>
<rect x="150.041" y="2.02417" width="62.1327" height="62.1327" transform="rotate(45 150.041 2.02417)" fill="#EFB82D"/>
<path fill-rule="evenodd" clip-rule="evenodd" d="M119.938 76.6273L120.29 76.2747L44.0157 0L0.0812509 43.9344L54.1062 97.9594L0 152.066L43.9344 196L141.622 98.3121L119.938 76.6273Z" fill="#EFB82D"/>
<rect x="141.988" y="97.9723" width="62.1327" height="62.1327" transform="rotate(135 141.988 97.9723)" fill="#EFB82D"/>
<rect x="194.057" y="150.041" width="62.1327" height="62.1327" transform="rotate(135 194.057 150.041)" fill="#EFB82D"/>
</svg>
